<svg xmlns="http://www.w3.org/2000/svg" viewBox="0 0 96 96"><rect width="96" height="96" rx="8" fill="#0a1b2c"/><g fill="none" stroke="#31779e" stroke-width="1.2" opacity=".7"><path d="M8 15H24V22H32 M46 83V71H58"/></g><g transform="translate(3 2) scale(.88)" fill="#163b59" stroke="#80c6e8" stroke-width="2.2" stroke-linecap="square" stroke-linejoin="miter"><path d="M27 29Q41 7 55 29Q74 54 43 59Q13 54 27 29 M15 57Q18 76 42 77L54 74 M50 68L55 74L49 80 M69 30Q72 12 52 9"/></g><path d="M59 59H86V86H59Z" fill="#0a1b2c"/><g fill="none" stroke="#f4c567" stroke-width="2.3"><path d="M62 64H79L74 59 M79 64L74 69 M79 76H62L67 71 M62 76L67 81"/></g></svg>