<svg xmlns="http://www.w3.org/2000/svg" viewBox="0 0 96 96"><rect width="96" height="96" rx="8" fill="#0a1b2c"/><g fill="none" stroke="#31779e" stroke-width="1.2" opacity=".7"><path d="M8 24H39V31H47 M46 83V68H58"/></g><g transform="translate(3 2) scale(.88)" fill="#163b59" stroke="#80c6e8" stroke-width="2.2" stroke-linecap="square" stroke-linejoin="miter"><rect x="18" y="19" width="49" height="54" rx="3"/><path d="M18 29H67 M18 64H67 M42 56V37 M42 47Q25 48 28 35Q42 34 42 47 M42 43Q58 43 56 31Q43 31 42 43"/></g><path d="M59 59H86V86H59Z" fill="#0a1b2c"/><g fill="none" stroke="#f4c567" stroke-width="2.3"><path d="M62 64H79L74 59 M79 64L74 69 M79 76H62L67 71 M62 76L67 81"/></g></svg>