<svg xmlns="http://www.w3.org/2000/svg" viewBox="0 0 96 96"><rect width="96" height="96" rx="8" fill="#0a1b2c"/><g fill="none" stroke="#31779e" stroke-width="1.2" opacity=".7"><path d="M8 24H24V31H32 M44 83V77H56"/></g><g transform="translate(3 2) scale(.88)" fill="#163b59" stroke="#80c6e8" stroke-width="2.2" stroke-linecap="square" stroke-linejoin="miter"><path d="M10 65Q12 14 42 14Q73 14 76 65Z M10 65H76 M22 65L29 31L42 14L57 31L65 65 M15 45H71 M29 31H57 M29 31L42 65L57 31"/></g><path d="M59 59H86V86H59Z" fill="#0a1b2c"/><g fill="none" stroke="#f4c567" stroke-width="2.3"><path d="M62 64H79L74 59 M79 64L74 69 M79 76H62L67 71 M62 76L67 81"/></g></svg>